<svg width="80" height="80" viewBox="0 0 80 80" fill="none" xmlns="http://www.w3.org/2000/svg">
<rect width="80" height="80" rx="20" fill="#EAE6E1"/>
<path d="M11 15.4224C11 16.2414 11.6648 17.3879 12.9943 18.6983L21.1376 26.7241C22.4671 28.0345 23.4641 28.6897 24.4613 28.6897C25.7908 28.6897 26.788 28.1983 27.6189 27.3793C28.4499 26.3966 28.9485 25.4138 28.9485 24.2672C28.9485 23.4483 28.2837 22.3017 26.9541 20.9914L18.8109 12.9655C17.4814 11.6552 16.4842 11 15.4871 11C14.1575 11 13.1605 11.4914 12.3295 12.3103C11.4986 13.2931 11 14.2759 11 15.4224Z" fill="#B0665E"/>
<path d="M12.3295 27.3793C13.3267 28.1983 14.3237 28.6897 15.4871 28.6897C16.318 28.6897 17.4814 28.0345 18.8109 26.7241L19.1432 26.3966L13.3266 20.6638L12.9943 20.9914C11.6648 22.3017 11 23.2845 11 24.2672C11 25.5776 11.4986 26.5603 12.3295 27.3793Z" fill="#B0665E"/>
<path d="M11 54.7328C11 55.5517 11.6648 56.6983 12.9943 58.0086L21.1376 66.0345C22.4671 67.3448 23.4641 68 24.4613 68C25.7908 68 26.788 67.5086 27.6189 66.6897C28.4499 65.7069 28.9485 64.7241 28.9485 63.5776C28.9485 62.7586 28.2837 61.6121 26.9541 60.3017L18.8109 52.2759C17.4814 50.9655 16.4842 50.3103 15.4871 50.3103C14.1575 50.3103 13.1605 50.8017 12.3295 51.6207C11.4986 52.6035 11 53.5862 11 54.7328Z" fill="#B0665E"/>
<path d="M12.3295 66.6897C13.3267 67.5086 14.3237 68 15.4871 68C16.318 68 17.4814 67.3448 18.8109 66.0345L19.1432 65.7069L13.3266 59.9741L12.9943 60.3017C11.6648 61.6121 11 62.5948 11 63.5776C11 64.8879 11.4986 65.8707 12.3295 66.6897Z" fill="#B0665E"/>
<path d="M27.7851 12.3103C26.788 11.4914 25.7908 11 24.6275 11C23.7966 11 22.6333 11.6552 21.3038 12.9655L20.9713 13.2931L26.7879 19.0259L27.1204 18.6983C28.4499 17.3879 29.1147 16.4052 29.1147 15.4224C29.1147 14.1121 28.7823 13.1293 27.7851 12.3103Z" fill="#B0665E"/>
<path d="M27.7851 51.6207C26.788 50.8017 25.7908 50.3103 24.6275 50.3103C23.7966 50.3103 22.6333 50.9655 21.3038 52.2759L20.9713 52.6035L26.7879 58.3362L27.1204 58.0086C28.4499 56.6983 29.1147 55.7155 29.1147 54.7328C29.1147 53.4224 28.6161 52.4397 27.7851 51.6207Z" fill="#B0665E"/>
<path d="M30.9427 35.0776C30.9427 35.8966 31.6075 37.0431 32.937 38.3534L41.0802 46.3793C42.4097 47.6897 43.4069 48.3448 44.4041 48.3448C45.7336 48.3448 46.7306 47.8535 47.5616 47.0345C48.3925 46.0517 48.8911 45.069 48.8911 43.9224C48.8911 43.1035 48.2264 41.9569 46.8969 40.6466L38.7536 32.6207C37.4241 31.3103 36.427 30.6552 35.4298 30.6552C34.1003 30.6552 33.1031 30.9828 32.2722 31.9655C31.4413 32.9483 30.9427 33.931 30.9427 35.0776Z" fill="#B0665E"/>
<path d="M32.2722 47.0345C33.2693 47.8535 34.2665 48.3448 35.4298 48.3448C36.2608 48.3448 37.4241 47.6897 38.7536 46.3793L39.086 46.0517L33.2694 40.319L32.937 40.6466C31.6075 41.9569 30.9427 42.9397 30.9427 43.9224C30.9427 45.2328 31.4413 46.2155 32.2722 47.0345Z" fill="#B0665E"/>
<path d="M47.7278 31.9655C46.7307 31.1466 45.7335 30.6552 44.5702 30.6552C43.7392 30.6552 42.5759 31.3103 41.2464 32.6207L40.9141 32.9483L46.7307 38.681L47.063 38.3534C48.3925 37.0431 49.0573 36.0603 49.0573 35.0776C49.0573 33.7672 48.5587 32.7845 47.7278 31.9655Z" fill="#B0665E"/>
<path d="M50.8854 15.4224C50.8854 16.2414 51.5501 17.3879 52.8796 18.6983L61.023 26.7241C62.3525 28.0345 63.3496 28.6897 64.3467 28.6897C65.6762 28.6897 66.6734 28.3621 67.5044 27.3793C68.3353 26.3966 68.8339 25.4138 68.8339 24.2672C68.8339 23.4483 68.1691 22.3017 66.8396 20.9914L58.6964 12.9655C57.3668 11.6552 56.3696 11 55.3725 11C54.043 11 53.0459 11.4914 52.215 12.3103C51.384 13.2931 50.8854 14.2759 50.8854 15.4224Z" fill="#B0665E"/>
<path d="M52.215 27.3793C53.2121 28.1983 54.2092 28.6897 55.3725 28.6897C56.2034 28.6897 57.3668 28.0345 58.6964 26.7241L59.0287 26.3966L53.2121 20.6638L52.8796 20.9914C51.5501 22.3017 50.8854 23.2845 50.8854 24.2672C50.8854 25.5776 51.2178 26.5603 52.215 27.3793Z" fill="#B0665E"/>
<path d="M50.8854 54.7328C50.8854 55.5517 51.5501 56.6983 52.8796 58.0086L61.023 66.0345C62.3525 67.3448 63.3496 68 64.3467 68C65.6762 68 66.6734 67.6724 67.5044 66.6897C68.3353 65.7069 68.8339 64.7241 68.8339 63.5776C68.8339 62.7586 68.1691 61.6121 66.8396 60.3017L58.6964 52.2759C57.3668 50.9655 56.3696 50.3103 55.3725 50.3103C54.043 50.3103 53.0459 50.6379 52.215 51.6207C51.384 52.6035 50.8854 53.5862 50.8854 54.7328Z" fill="#B0665E"/>
<path d="M52.215 66.6897C53.2121 67.5086 54.2092 68 55.3725 68C56.2034 68 57.3668 67.3448 58.6964 66.0345L59.0287 65.7069L53.2121 59.9741L52.8796 60.3017C51.5501 61.6121 50.8854 62.5948 50.8854 63.5776C50.8854 64.8879 51.2178 65.8707 52.215 66.6897Z" fill="#B0665E"/>
<path d="M67.6706 12.3103C66.6734 11.4914 65.6763 11 64.5129 11C63.682 11 62.5186 11.6552 61.1891 12.9655L60.8568 13.2931L66.6734 19.0259L67.0058 18.6983C68.3353 17.3879 69 16.4052 69 15.4224C69 14.1121 68.5015 13.1293 67.6706 12.3103Z" fill="#B0665E"/>
<path d="M67.6706 51.6207C66.6734 50.8017 65.6763 50.3103 64.5129 50.3103C63.682 50.3103 62.5186 50.9655 61.1891 52.2759L60.8568 52.6035L66.6734 58.3362L67.0058 58.0086C68.3353 56.6983 69 55.7155 69 54.7328C69 53.4224 68.6677 52.4397 67.6706 51.6207Z" fill="#B0665E"/>
</svg>
