<svg width="143" height="70" viewBox="0 0 143 70" fill="none" xmlns="http://www.w3.org/2000/svg">
<path d="M1.44326 19.881C0.48111 18.9286 0 18.0952 0 17.5C0 16.6667 0.360829 15.9524 0.962175 15.2381C1.56352 14.6429 2.28507 14.2857 3.24723 14.2857C3.96884 14.2857 4.69051 14.7619 5.65266 15.7143L11.5458 21.5476C12.508 22.5 12.9891 23.3333 12.9891 23.9286C12.9891 24.7619 12.6283 25.4762 12.0269 26.1905C11.4256 26.7857 10.7039 27.1429 9.74177 27.1429C9.02016 27.1429 8.29858 26.6667 7.33642 25.7143L1.44326 19.881ZM3.24723 27.1429C2.40534 27.1429 1.68379 26.7857 0.962175 26.1905C0.360829 25.5952 0 24.881 0 23.9286C0 23.2143 0.48111 22.5 1.44326 21.5476L1.68376 21.3095L5.89316 25.4762L5.65266 25.7143C4.69051 26.6667 3.84857 27.1429 3.24723 27.1429ZM1.44326 48.4524C0.48111 47.5 0 46.6667 0 46.0714C0 45.2381 0.360829 44.5238 0.962175 43.8095C1.56352 43.2143 2.28507 42.8571 3.24723 42.8571C3.96884 42.8571 4.69051 43.3333 5.65266 44.2857L11.5458 50.119C12.508 51.0714 12.9891 51.9048 12.9891 52.5C12.9891 53.3333 12.6283 54.0476 12.0269 54.7619C11.4256 55.3571 10.7039 55.7143 9.74177 55.7143C9.02016 55.7143 8.29858 55.2381 7.33642 54.2857L1.44326 48.4524ZM3.24723 55.7143C2.40534 55.7143 1.68379 55.3571 0.962175 54.7619C0.360829 54.1667 0 53.4524 0 52.5C0 51.7857 0.48111 51.0714 1.44326 50.119L1.68376 49.881L5.89316 54.0476L5.65266 54.2857C4.69051 55.2381 3.84857 55.7143 3.24723 55.7143ZM9.86207 14.2857C10.7039 14.2857 11.4256 14.6429 12.1472 15.2381C12.8688 15.8333 13.1094 16.5476 13.1094 17.5C13.1094 18.2143 12.6283 18.9286 11.6661 19.881L11.4255 20.119L7.21613 15.9524L7.45672 15.7143C8.41887 14.7619 9.26072 14.2857 9.86207 14.2857ZM9.86207 42.8571C10.7039 42.8571 11.4256 43.2143 12.1472 43.8095C12.7486 44.4048 13.1094 45.119 13.1094 46.0714C13.1094 46.7857 12.6283 47.5 11.6661 48.4524L11.4255 48.6905L7.21613 44.5238L7.45672 44.2857C8.41887 43.3333 9.26072 42.8571 9.86207 42.8571ZM15.8755 34.1667C14.9134 33.2143 14.4323 32.381 14.4323 31.7857C14.4323 30.9524 14.7931 30.2381 15.3944 29.5238C15.9958 28.8095 16.7174 28.5714 17.6796 28.5714C18.4012 28.5714 19.1228 29.0476 20.0849 30L25.9782 35.8333C26.9403 36.7857 27.4213 37.619 27.4213 38.2143C27.4213 39.0476 27.0605 39.7619 26.4592 40.4762C25.8578 41.0714 25.1363 41.4286 24.1741 41.4286C23.4525 41.4286 22.7308 40.9524 21.7687 40L15.8755 34.1667ZM17.6796 41.4286C16.8377 41.4286 16.116 41.0714 15.3944 40.4762C14.7931 39.881 14.4323 39.1667 14.4323 38.2143C14.4323 37.5 14.9134 36.7857 15.8755 35.8333L16.1161 35.5952L20.3255 39.7619L20.0849 40C19.1228 40.9524 18.2809 41.4286 17.6796 41.4286ZM24.2943 28.5714C25.1362 28.5714 25.8579 28.9286 26.5795 29.5238C27.1808 30.119 27.5416 30.8333 27.5416 31.7857C27.5416 32.5 27.0605 33.2143 26.0984 34.1667L25.8579 34.4048L21.6485 30.2381L21.889 30C22.8511 29.0476 23.693 28.5714 24.2943 28.5714ZM30.3078 19.881C29.3456 18.9286 28.8646 18.0952 28.8646 17.5C28.8646 16.6667 29.2254 15.9524 29.8268 15.2381C30.4281 14.6429 31.1497 14.2857 32.1118 14.2857C32.8335 14.2857 33.5551 14.7619 34.5173 15.7143L40.4104 21.5476C41.3726 22.5 41.8537 23.3333 41.8537 23.9286C41.8537 24.7619 41.4929 25.4762 40.8915 26.1905C40.2902 26.9048 39.5685 27.1429 38.6064 27.1429C37.8848 27.1429 37.1632 26.6667 36.201 25.7143L30.3078 19.881ZM32.1118 27.1429C31.27 27.1429 30.5484 26.7857 29.8268 26.1905C29.1052 25.5952 28.8646 24.881 28.8646 23.9286C28.8646 23.2143 29.3456 22.5 30.3078 21.5476L30.5484 21.3095L34.7578 25.4762L34.5173 25.7143C33.5551 26.6667 32.7132 27.1429 32.1118 27.1429ZM30.3078 48.4524C29.3456 47.5 28.8646 46.6667 28.8646 46.0714C28.8646 45.2381 29.2254 44.5238 29.8268 43.8095C30.4281 43.0952 31.1497 42.8571 32.1118 42.8571C32.8335 42.8571 33.5551 43.3333 34.5173 44.2857L40.4104 50.119C41.3726 51.0714 41.8537 51.9048 41.8537 52.5C41.8537 53.3333 41.4929 54.0476 40.8915 54.7619C40.2902 55.4762 39.5685 55.7143 38.6064 55.7143C37.8848 55.7143 37.1632 55.2381 36.201 54.2857L30.3078 48.4524ZM32.1118 55.7143C31.27 55.7143 30.5484 55.3571 29.8268 54.7619C29.1052 54.1667 28.8646 53.4524 28.8646 52.5C28.8646 51.7857 29.3456 51.0714 30.3078 50.119L30.5484 49.881L34.7578 54.0476L34.5173 54.2857C33.5551 55.2381 32.7132 55.7143 32.1118 55.7143ZM38.7267 14.2857C39.5686 14.2857 40.2902 14.6429 41.0118 15.2381C41.6132 15.8333 41.9739 16.5476 41.9739 17.5C41.9739 18.2143 41.4929 18.9286 40.5307 19.881L40.2901 20.119L36.0807 15.9524L36.3212 15.7143C37.2834 14.7619 38.1253 14.2857 38.7267 14.2857ZM38.7267 42.8571C39.5686 42.8571 40.2902 43.2143 41.0118 43.8095C41.7334 44.4048 41.9739 45.119 41.9739 46.0714C41.9739 46.7857 41.4929 47.5 40.5307 48.4524L40.2901 48.6905L36.0807 44.5238L36.3212 44.2857C37.2834 43.3333 38.1253 42.8571 38.7267 42.8571ZM44.6198 62.7381C43.6577 61.7857 43.1767 60.9524 43.1767 60.3571C43.1767 59.5238 43.5374 58.8095 44.1388 58.0952C44.7401 57.5 45.4617 57.1429 46.4239 57.1429C47.1455 57.1429 47.8671 57.619 48.8292 58.5714L54.7225 64.4048C55.6846 65.3571 56.1657 66.1905 56.1657 66.7857C56.1657 67.619 55.8049 68.3333 55.2036 69.0476C54.6022 69.6429 53.8806 70 52.9184 70C52.1968 70 51.4752 69.5238 50.513 68.5714L44.6198 62.7381ZM46.3036 70C45.4617 70 44.7402 69.6429 44.0185 69.0476C43.4172 68.4524 43.0564 67.7381 43.0564 66.7857C43.0564 66.0714 43.5374 65.3571 44.4995 64.4048L44.7401 64.1667L48.9495 68.3333L48.709 68.5714C47.7469 69.5238 46.9049 70 46.3036 70ZM44.7401 5.59524C43.778 4.64286 43.2969 3.80952 43.2969 3.21429C43.2969 2.38095 43.6577 1.66667 44.259 0.952381C44.8604 0.238095 45.582 0 46.5442 0C47.2658 0 47.9874 0.47619 48.9495 1.42857L54.8427 7.2619C55.8048 8.21429 56.286 9.04762 56.286 9.64286C56.286 10.4762 55.9251 11.1905 55.3238 11.9048C54.7224 12.5 54.0009 12.8571 53.0387 12.8571C52.3171 12.8571 51.5954 12.381 50.6333 11.4286L44.7401 5.59524ZM46.5442 12.8571C45.7023 12.8571 44.9807 12.5 44.259 11.9048C43.6577 11.3095 43.2969 10.5952 43.2969 9.64286C43.2969 8.92857 43.778 8.21429 44.7401 7.2619L44.9806 7.02381L49.1901 11.1905L48.9495 11.4286C47.9874 12.381 47.1455 12.8571 46.5442 12.8571ZM53.0387 57.1429C53.8806 57.1429 54.6022 57.5 55.3238 58.0952C55.9251 58.6905 56.286 59.4048 56.286 60.3571C56.286 61.0714 55.8048 61.7857 54.8427 62.7381L54.6022 62.9762L50.3928 58.8095L50.6333 58.5714C51.5954 57.619 52.4374 57.1429 53.0387 57.1429ZM53.1589 0C54.0008 0 54.7225 0.357143 55.4441 0.952381C56.1657 1.54762 56.4063 2.2619 56.4063 3.21429C56.4063 3.92857 55.9251 4.64286 54.963 5.59524L54.7225 5.83333L50.513 1.66667L50.7536 1.42857C51.7157 0.47619 52.5576 0 53.1589 0ZM59.0522 62.7381C58.09 61.7857 57.6089 60.9524 57.6089 60.3571C57.6089 59.5238 57.9698 58.8095 58.5711 58.0952C59.1724 57.381 59.894 57.1429 60.8562 57.1429C61.5778 57.1429 62.2994 57.619 63.2616 58.5714L69.1548 64.4048C70.1169 65.3571 70.598 66.1905 70.598 66.7857C70.598 67.619 70.2372 68.3333 69.6358 69.0476C69.0345 69.7619 68.3129 70 67.3507 70C66.6291 70 65.9075 69.5238 64.9454 68.5714L59.0522 62.7381ZM60.736 70C59.8941 70 59.1724 69.6429 58.4508 69.0476C57.7292 68.4524 57.4886 67.7381 57.4886 66.7857C57.4886 66.0714 57.9697 65.3571 58.9319 64.4048L59.1724 64.1667L63.3818 68.3333L63.1413 68.5714C62.1791 69.5238 61.3373 70 60.736 70ZM59.1724 5.59524C58.2102 4.64286 57.7292 3.80952 57.7292 3.21429C57.7292 2.38095 58.09 1.66667 58.6913 0.952381C59.2927 0.357143 60.0143 0 60.9764 0C61.6981 0 62.4196 0.47619 63.3818 1.42857L69.275 7.2619C70.2372 8.21429 70.7182 9.04762 70.7182 9.64286C70.7182 10.4762 70.3575 11.1905 69.7561 11.9048C69.1548 12.619 68.4331 12.8571 67.471 12.8571C66.7494 12.8571 66.0278 12.381 65.0656 11.4286L59.1724 5.59524ZM60.9764 12.8571C60.1346 12.8571 59.4129 12.5 58.6913 11.9048C58.09 11.3095 57.7292 10.5952 57.7292 9.64286C57.7292 8.92857 58.2102 8.21429 59.1724 7.2619L59.413 7.02381L63.6224 11.1905L63.3818 11.4286C62.4196 12.381 61.5778 12.8571 60.9764 12.8571ZM59.1724 34.1667C58.2102 33.2143 57.7292 32.381 57.7292 31.7857C57.7292 30.9524 58.09 30.2381 58.6913 29.5238C59.2927 28.9286 60.0143 28.5714 60.9764 28.5714C61.6981 28.5714 62.4196 29.0476 63.3818 30L69.275 35.8333C70.2372 36.7857 70.7182 37.619 70.7182 38.2143C70.7182 39.0476 70.3575 39.7619 69.7561 40.4762C69.1548 41.0714 68.4331 41.4286 67.471 41.4286C66.7494 41.4286 66.0278 40.9524 65.0656 40L59.1724 34.1667ZM60.9764 41.4286C60.1346 41.4286 59.4129 41.0714 58.6913 40.4762C57.9697 39.881 57.7292 39.1667 57.7292 38.2143C57.7292 37.5 58.2102 36.7857 59.1724 35.8333L59.413 35.5952L63.6224 39.7619L63.3818 40C62.4196 40.9524 61.5778 41.4286 60.9764 41.4286ZM67.471 57.1429C68.3129 57.1429 69.0345 57.5 69.7561 58.0952C70.4778 58.6905 70.7182 59.4048 70.7182 60.3571C70.7182 61.0714 70.2372 61.7857 69.275 62.7381L69.0345 62.9762L64.8251 58.8095L65.0656 58.5714C66.0278 57.619 66.8696 57.1429 67.471 57.1429ZM67.5913 0C68.4332 0 69.1547 0.357143 69.8763 0.952381C70.4777 1.54762 70.8385 2.2619 70.8385 3.21429C70.8385 3.92857 70.3574 4.64286 69.3953 5.59524L69.1548 5.83333L64.9454 1.66667L65.1858 1.42857C66.148 0.47619 66.9899 0 67.5913 0ZM67.5913 28.5714C68.4332 28.5714 69.1547 28.9286 69.8763 29.5238C70.4777 30.119 70.8385 30.8333 70.8385 31.7857C70.8385 32.5 70.3574 33.2143 69.3953 34.1667L69.1548 34.4048L64.9454 30.2381L65.1858 30C66.148 29.0476 66.9899 28.5714 67.5913 28.5714ZM73.244 62.7381C72.2818 61.7857 71.8007 60.9524 71.8007 60.3571C71.8007 59.5238 72.1615 58.8095 72.7629 58.0952C73.3642 57.5 74.0858 57.1429 75.0479 57.1429C75.7695 57.1429 76.4912 57.619 77.4534 58.5714L83.3465 64.4048C84.3087 65.3571 84.7898 66.1905 84.7898 66.7857C84.7898 67.619 84.4289 68.3333 83.8276 69.0476C83.2263 69.6429 82.5046 70 81.5425 70C80.8208 70 80.0993 69.5238 79.1371 68.5714L73.244 62.7381ZM74.9277 70C74.0858 70 73.3642 69.6429 72.6426 69.0476C72.0412 68.4524 71.6804 67.7381 71.6804 66.7857C71.6804 66.0714 72.1615 65.3571 73.1237 64.4048L73.3642 64.1667L77.5736 68.3333L77.3331 68.5714C76.3709 69.5238 75.5291 70 74.9277 70ZM73.4844 34.1667C72.5223 33.2143 72.0412 32.381 72.0412 31.7857C72.0412 30.9524 72.402 30.2381 73.0034 29.5238C73.6047 28.9286 74.3264 28.5714 75.2885 28.5714C76.0101 28.5714 76.7317 29.0476 77.6939 30L83.587 35.8333C84.5492 36.7857 85.0303 37.619 85.0303 38.2143C85.0303 39.0476 84.6694 39.7619 84.0681 40.4762C83.4668 41.0714 82.7452 41.4286 81.783 41.4286C81.0614 41.4286 80.3398 40.9524 79.3776 40L73.4844 34.1667ZM75.1682 41.4286C74.3263 41.4286 73.6047 41.0714 72.8831 40.4762C72.1615 39.881 71.921 39.1667 71.921 38.2143C71.921 37.5 72.402 36.7857 73.3642 35.8333L73.6047 35.5952L77.8141 39.7619L77.5736 40C76.6114 40.9524 75.7696 41.4286 75.1682 41.4286ZM73.6047 5.59524C72.6426 4.64286 72.1615 3.80952 72.1615 3.21429C72.1615 2.38095 72.5223 1.66667 73.1237 0.952381C73.725 0.238095 74.4466 0 75.4087 0C76.1303 0 76.852 0.47619 77.8141 1.42857L83.7073 7.2619C84.6695 8.21429 85.1506 9.04762 85.1506 9.64286C85.1506 10.4762 84.7897 11.1905 84.1884 11.9048C83.587 12.5 82.8654 12.8571 81.9033 12.8571C81.1816 12.8571 80.4601 12.381 79.4979 11.4286L73.6047 5.59524ZM75.4087 12.8571C74.5668 12.8571 73.8453 12.5 73.1237 11.9048C72.5223 11.3095 72.1615 10.5952 72.1615 9.64286C72.1615 8.92857 72.6426 8.21429 73.6047 7.2619L73.8452 7.02381L78.0546 11.1905L77.8141 11.4286C76.852 12.381 76.0101 12.8571 75.4087 12.8571ZM81.5425 57.1429C82.3843 57.1429 83.106 57.5 83.8276 58.0952C84.4289 58.6905 84.7898 59.4048 84.7898 60.3571C84.7898 61.0714 84.3087 61.7857 83.3465 62.7381L83.106 62.9762L78.8965 58.8095L79.1371 58.5714C80.0993 57.619 80.9411 57.1429 81.5425 57.1429ZM81.9033 28.5714C82.7451 28.5714 83.4668 28.9286 84.1884 29.5238C84.7897 30.119 85.1506 30.8333 85.1506 31.7857C85.1506 32.5 84.6695 33.2143 83.7073 34.1667L83.4668 34.4048L79.2574 30.2381L79.4979 30C80.4601 29.0476 81.3019 28.5714 81.9033 28.5714ZM82.0235 0C82.8654 0 83.5871 0.357143 84.3087 0.952381C84.91 1.54762 85.2709 2.2619 85.2709 3.21429C85.2709 3.92857 84.7898 4.64286 83.8276 5.59524L83.587 5.83333L79.3776 1.66667L79.6182 1.42857C80.5804 0.47619 81.4222 0 82.0235 0ZM87.6762 62.7381C86.7141 61.7857 86.2329 60.9524 86.2329 60.3571C86.2329 59.5238 86.5938 58.8095 87.1951 58.0952C87.7965 57.381 88.5181 57.1429 89.4803 57.1429C90.2019 57.1429 90.9235 57.619 91.8856 58.5714L97.7788 64.4048C98.7409 65.3571 99.222 66.1905 99.222 66.7857C99.222 67.619 98.8612 68.3333 98.2599 69.0476C97.6585 69.7619 96.937 70 95.9748 70C95.2532 70 94.5315 69.5238 93.5694 68.5714L87.6762 62.7381ZM89.36 70C88.5181 70 87.7964 69.6429 87.0748 69.0476C86.3532 68.4524 86.1127 67.7381 86.1127 66.7857C86.1127 66.0714 86.5938 65.3571 87.5559 64.4048L87.7965 64.1667L92.0059 68.3333L91.7653 68.5714C90.8032 69.5238 89.9613 70 89.36 70ZM88.037 5.59524C87.0749 4.64286 86.5937 3.80952 86.5937 3.21429C86.5937 2.38095 86.9546 1.66667 87.5559 0.952381C88.1573 0.238095 88.8789 0 89.8411 0C90.5627 0 91.2843 0.47619 92.2464 1.42857L98.1397 7.2619C99.1018 8.21429 99.5828 9.04762 99.5828 9.64286C99.5828 10.4762 99.222 11.1905 98.6207 11.9048C98.0193 12.619 97.2978 12.8571 96.3356 12.8571C95.614 12.8571 94.8923 12.381 93.9302 11.4286L88.037 5.59524ZM89.8411 12.8571C88.9992 12.8571 88.2775 12.5 87.5559 11.9048C86.9546 11.3095 86.5937 10.5952 86.5937 9.64286C86.5937 8.92857 87.0749 8.21429 88.037 7.2619L88.2776 7.02381L92.487 11.1905L92.2464 11.4286C91.2843 12.381 90.4424 12.8571 89.8411 12.8571ZM95.9748 57.1429C96.8167 57.1429 97.5382 57.5 98.2599 58.0952C98.9815 58.6905 99.222 59.4048 99.222 60.3571C99.222 61.0714 98.7409 61.7857 97.7788 62.7381L97.5383 62.9762L93.3289 58.8095L93.5694 58.5714C94.5315 57.619 95.3735 57.1429 95.9748 57.1429ZM96.4558 0C97.2977 0 98.0193 0.357143 98.7409 0.952381C99.3423 1.54762 99.7031 2.2619 99.7031 3.21429C99.7031 3.92857 99.222 4.64286 98.2599 5.59524L98.0194 5.83333L93.81 1.66667L94.0505 1.42857C95.0126 0.47619 95.8545 0 96.4558 0ZM102.469 19.881C101.507 18.9286 101.026 18.0952 101.026 17.5C101.026 16.6667 101.387 15.9524 101.988 15.2381C102.59 14.6429 103.311 14.2857 104.273 14.2857C104.995 14.2857 105.717 14.7619 106.679 15.7143L112.572 21.5476C113.534 22.5 114.015 23.3333 114.015 23.9286C114.015 24.7619 113.654 25.4762 113.053 26.1905C112.452 26.9048 111.73 27.1429 110.768 27.1429C110.046 27.1429 109.325 26.6667 108.363 25.7143L102.469 19.881ZM104.273 27.1429C103.431 27.1429 102.71 26.7857 101.988 26.1905C101.267 25.5952 101.026 24.881 101.026 23.9286C101.026 23.2143 101.507 22.5 102.469 21.5476L102.71 21.3095L106.919 25.4762L106.679 25.7143C105.717 26.6667 104.875 27.1429 104.273 27.1429ZM102.469 48.4524C101.507 47.5 101.026 46.6667 101.026 46.0714C101.026 45.2381 101.387 44.5238 101.988 43.8095C102.59 43.0952 103.311 42.8571 104.273 42.8571C104.995 42.8571 105.717 43.3333 106.679 44.2857L112.572 50.119C113.534 51.0714 114.015 51.9048 114.015 52.5C114.015 53.3333 113.654 54.0476 113.053 54.7619C112.452 55.4762 111.73 55.7143 110.768 55.7143C110.046 55.7143 109.325 55.2381 108.363 54.2857L102.469 48.4524ZM104.273 55.7143C103.431 55.7143 102.71 55.3571 101.988 54.7619C101.267 54.1667 101.026 53.4524 101.026 52.5C101.026 51.7857 101.507 51.0714 102.469 50.119L102.71 49.881L106.919 54.0476L106.679 54.2857C105.717 55.2381 104.875 55.7143 104.273 55.7143ZM110.888 14.2857C111.73 14.2857 112.452 14.6429 113.173 15.2381C113.775 15.8333 114.135 16.5476 114.135 17.5C114.135 18.2143 113.654 18.9286 112.692 19.881L112.452 20.119L108.242 15.9524L108.483 15.7143C109.445 14.7619 110.287 14.2857 110.888 14.2857ZM110.888 42.8571C111.73 42.8571 112.452 43.2143 113.173 43.8095C113.895 44.4048 114.135 45.119 114.135 46.0714C114.135 46.7857 113.654 47.5 112.692 48.4524L112.452 48.6905L108.242 44.5238L108.483 44.2857C109.445 43.3333 110.287 42.8571 110.888 42.8571ZM116.902 34.1667C115.939 33.2143 115.458 32.381 115.458 31.7857C115.458 30.9524 115.819 30.2381 116.421 29.5238C117.022 28.8095 117.744 28.5714 118.706 28.5714C119.427 28.5714 120.149 29.0476 121.111 30L127.004 35.8333C127.966 36.7857 128.447 37.619 128.447 38.2143C128.447 39.0476 128.087 39.7619 127.485 40.4762C126.884 41.0714 126.162 41.4286 125.2 41.4286C124.479 41.4286 123.757 40.9524 122.795 40L116.902 34.1667ZM118.706 41.4286C117.864 41.4286 117.142 41.0714 116.421 40.4762C115.819 39.881 115.458 39.1667 115.458 38.2143C115.458 37.5 115.939 36.7857 116.902 35.8333L117.142 35.5952L121.352 39.7619L121.111 40C120.149 40.9524 119.307 41.4286 118.706 41.4286ZM125.32 28.5714C126.162 28.5714 126.884 28.9286 127.606 29.5238C128.327 30.119 128.568 30.8333 128.568 31.7857C128.568 32.5 128.087 33.2143 127.124 34.1667L126.884 34.4048L122.674 30.2381L122.915 30C123.877 29.0476 124.719 28.5714 125.32 28.5714ZM131.334 19.881C130.372 18.9286 129.891 18.0952 129.891 17.5C129.891 16.6667 130.251 15.9524 130.853 15.2381C131.454 14.5238 132.176 14.2857 133.138 14.2857C133.86 14.2857 134.581 14.7619 135.543 15.7143L141.437 21.5476C142.399 22.5 142.88 23.3333 142.88 23.9286C142.88 24.7619 142.519 25.4762 141.918 26.1905C141.316 26.9048 140.595 27.1429 139.632 27.1429C138.911 27.1429 138.189 26.6667 137.227 25.7143L131.334 19.881ZM133.138 27.1429C132.296 27.1429 131.574 26.7857 130.853 26.1905C130.251 25.5952 129.891 24.881 129.891 23.9286C129.891 23.2143 130.372 22.5 131.334 21.5476L131.574 21.3095L135.784 25.4762L135.543 25.7143C134.581 26.6667 133.739 27.1429 133.138 27.1429ZM131.334 48.4524C130.372 47.5 129.891 46.6667 129.891 46.0714C129.891 45.2381 130.251 44.5238 130.853 43.8095C131.454 43.2143 132.176 42.8571 133.138 42.8571C133.86 42.8571 134.581 43.3333 135.543 44.2857L141.437 50.119C142.399 51.0714 142.88 51.9048 142.88 52.5C142.88 53.3333 142.519 54.0476 141.918 54.7619C141.316 55.4762 140.595 55.7143 139.632 55.7143C138.911 55.7143 138.189 55.2381 137.227 54.2857L131.334 48.4524ZM133.138 55.7143C132.296 55.7143 131.574 55.3571 130.853 54.7619C130.251 54.1667 129.891 53.4524 129.891 52.5C129.891 51.7857 130.372 51.0714 131.334 50.119L131.574 49.881L135.784 54.0476L135.543 54.2857C134.581 55.2381 133.739 55.7143 133.138 55.7143ZM139.753 14.2857C140.595 14.2857 141.316 14.6429 142.038 15.2381C142.639 15.8333 143 16.5476 143 17.5C143 18.2143 142.519 18.9286 141.557 19.881L141.316 20.119L137.107 15.9524L137.347 15.7143C138.309 14.7619 139.151 14.2857 139.753 14.2857ZM139.753 42.8571C140.595 42.8571 141.316 43.2143 142.038 43.8095C142.759 44.4048 143 45.119 143 46.0714C143 46.7857 142.519 47.5 141.557 48.4524L141.316 48.6905L137.107 44.5238L137.347 44.2857C138.309 43.3333 139.151 42.8571 139.753 42.8571Z" fill="#B0665E"/>
</svg>
