<svg width="346" height="26" viewBox="0 0 346 26" fill="none" xmlns="http://www.w3.org/2000/svg">
<g clip-path="url(#clip0_13_458)">
<path d="M0 0.444946H17.1562L20.8072 9.7579H20.8395L24.4904 0.444946H39.1912V25.5232H27.3013L27.4306 11.22H27.3983L22.1965 25.5232H14.4422L9.20814 11.2518H9.17583L9.33738 25.555H0V0.444946Z" fill="#231F20"/>
<path d="M63.3907 21.6772H54.0856L52.5671 25.5232H40.8711L52.1793 0.444946H67.8816L79.1899 25.5232H64.8123L63.3907 21.6772ZM61.7752 17.3863L58.932 9.82147H58.7381L55.798 17.3863H61.7752Z" fill="#231F20"/>
<path d="M80.8379 0.444946H96.6048C107.558 0.444946 110.918 3.55986 110.918 8.23223C110.918 10.7114 109.755 13.3814 105.554 14.176V14.2396C110.142 14.9388 110.918 17.6405 110.918 20.1515V25.5232H99.028V19.4841C99.028 18.0855 98.4464 17.0684 96.4433 17.0684H92.76V25.4914H80.8702V0.444946H80.8379ZM96.5725 12.8092C98.7695 12.8092 99.5126 11.9193 99.5126 10.6797C99.5126 9.28113 98.7695 8.35937 96.2817 8.35937H92.7277V12.8092H96.5725Z" fill="#231F20"/>
<path d="M134.859 21.6772H125.554L124.035 25.5232H112.339L123.68 0.444946H139.382L150.69 25.5232H136.313L134.891 21.6772H134.859ZM133.243 17.3863L130.4 9.82147H130.206L127.266 17.3863H133.243Z" fill="#231F20"/>
<path d="M162.483 12.8411C162.483 5.56235 167.782 0 179.833 0C191.885 0 197.248 5.56235 197.248 12.8411C197.248 20.1198 192.337 26 179.833 26C167.33 26 162.483 20.7873 162.483 12.8411ZM184.68 12.9046C184.68 9.72616 183.097 7.88264 179.833 7.88264C176.57 7.88264 174.987 9.75795 174.987 12.9046C174.987 16.401 176.603 18.0856 179.833 18.0856C183.064 18.0856 184.68 16.3692 184.68 12.9046Z" fill="#231F20"/>
<path d="M199.154 17.132H209.461C209.461 18.5941 210.172 20.2151 213.726 20.2151C217.28 20.2151 217.764 18.8801 217.764 17.9584C217.764 17.2591 217.377 16.6552 216.343 16.4645C215.244 16.2738 212.789 16.0831 210.333 15.8606C208.072 15.6699 204.194 15.2249 202.224 14.2713C200.124 13.2542 198.993 11.4743 198.993 8.89971C198.993 3.94127 203.774 0.0317383 214.501 0.0317383C227.005 0.0317383 229.234 4.1002 229.234 8.67721H219.574C219.574 7.11976 218.475 5.81658 215.277 5.81658C212.304 5.81658 211.238 6.96083 211.238 7.94616C211.238 8.48651 211.496 9.02685 212.239 9.28113C213.144 9.63076 215.6 9.72611 218.443 9.98039C221.932 10.2982 224.614 10.5843 226.488 11.3154C228.879 12.2689 230.3 14.1442 230.3 16.9095C230.3 21.1687 228.2 26.0317 214.372 26.0317C200.544 26.0317 199.154 20.533 199.154 17.1638V17.132Z" fill="#231F20"/>
<path d="M232.627 0.444946H249.783L253.434 9.7579H253.466L257.117 0.444946H271.818V25.5232H259.928L260.058 11.22H260.025L254.823 25.5232H247.069L241.867 11.22H241.835L241.997 25.5232H232.659V0.444946H232.627Z" fill="#231F20"/>
<path d="M296.018 21.6772H286.713L285.194 25.5232H273.498L284.806 0.444946H300.509L311.817 25.5232H297.439L296.018 21.6772ZM294.402 17.3863L291.559 9.82147H291.365L288.425 17.3863H294.402Z" fill="#231F20"/>
<path d="M313.464 0.444946H329.91L336.759 11.5379H336.792L336.662 0.444946H346V25.5232H329.942L322.414 12.9682H322.382L322.77 25.5232H313.432V0.444946H313.464Z" fill="#231F20"/>
</g>
<defs>
<clipPath id="clip0_13_458">
<rect width="346" height="26" fill="white"/>
</clipPath>
</defs>
</svg>
